<svg width="4274" height="2756" viewBox="0 0 4274 2756" fill="none" xmlns="http://www.w3.org/2000/svg">
<path fill-rule="evenodd" clip-rule="evenodd" d="M2152.04 616.514L2151.22 616.563C1936.1 626.756 1771.03 704.128 1624.8 863.252C1485.42 1014.93 1420.23 1211.56 1429.95 1416.84C1439.99 1619.44 1529.19 1810 1678.33 1947.49C1816.94 2073.22 1985.02 2140.87 2172.39 2139.1C2361.75 2135.42 2541.78 2056.21 2672.42 1919.08C2814.43 1772.15 2894.48 1560.36 2890.48 1356.7C2887.5 1149.33 2801.98 951.707 2652.86 807.577C2519.27 679.102 2339.38 610.14 2154.13 616.391C2153.44 616.432 2152.74 616.473 2152.04 616.514ZM2138.32 669.547L2143.34 669.291C2314.48 661.434 2481.66 722.23 2607.79 838.178C2747.86 967.801 2831.16 1147.45 2839.58 1338.11C2847.82 1521.81 2784.78 1723.46 2659.43 1860.09C2535.59 1995.08 2371.08 2079.32 2187.01 2087.33C2013.04 2091.71 1858.29 2035.07 1726.71 1920.68C1581.84 1793.61 1493.7 1613.98 1481.85 1421.64C1468.62 1235.03 1529.88 1050.78 1652.23 909.245C1778.54 764.411 1947.23 682.745 2138.32 669.547Z" fill="#0E5E9A"/>
<path fill-rule="evenodd" clip-rule="evenodd" d="M2458.59 1317.4C2450.02 1155.37 2311.65 1031.02 2149.63 1039.76C1987.87 1048.49 1863.76 1186.61 1872.31 1348.38C1880.86 1510.15 2018.83 1634.41 2180.61 1626.05C2342.64 1617.66 2467.15 1479.42 2458.59 1317.4ZM2300.72 1196.73C2319.55 1194.89 2336.41 1208.44 2338.66 1227.24C2340.9 1246.03 2327.72 1263.17 2308.98 1265.82C2296.49 1267.58 2284.01 1262.46 2276.39 1252.41C2268.76 1242.37 2267.17 1228.99 2272.21 1217.43C2277.26 1205.88 2288.16 1197.96 2300.72 1196.73ZM2199.69 1126.68C2194.83 1106.85 2175 1102.64 2157.46 1103.85C2140.18 1108.54 2133.29 1114.35 2128.71 1132.15C2134.83 1155.01 2148.81 1161.87 2172.11 1160.16C2181.98 1157.65 2191.26 1153.96 2196.87 1144.78C2200.2 1139.38 2201.23 1132.85 2199.69 1126.68ZM2158.05 1296.4C2177.41 1292.53 2196.23 1305.03 2200.18 1324.36C2204.12 1343.68 2191.71 1362.57 2172.4 1366.6C2152.98 1370.65 2133.95 1358.15 2129.98 1338.7C2126 1319.26 2138.59 1300.29 2158.05 1296.4ZM2362.03 1366.17C2356.89 1364.09 2351.31 1363.4 2345.82 1364.14C2300.82 1378.6 2307.38 1440.8 2351.36 1435.89C2385.39 1424.25 2391.87 1377.99 2362.03 1366.17ZM2162.93 1464.66C2182.38 1463.51 2199.11 1478.26 2200.43 1497.7C2201.73 1517.13 2187.13 1533.99 2167.69 1535.46C2148.04 1536.95 2130.93 1522.13 2129.61 1502.46C2128.29 1482.8 2143.25 1465.81 2162.93 1464.66ZM1974.41 1364.14C2013.75 1359.65 2035.29 1418.2 1991.13 1436.24C1951.22 1440.75 1931.38 1379.78 1974.41 1364.14ZM2022.51 1197.06C2067.29 1191.36 2079.66 1247.49 2032.29 1266.01C1986.19 1271.06 1977.01 1213.08 2022.51 1197.06Z" fill="#26A054"/>
<path d="M1825.89 1544.36C1832.38 1543.88 1843.36 1544.17 1848.18 1548.5C1860.35 1559.43 1871.75 1575.18 1883.1 1587.67C1908.8 1615.95 1938.39 1640.44 1970.98 1660.4C2132.25 1760.06 2332.9 1722.02 2452.57 1579.33C2461.83 1568.29 2473.67 1547.61 2487.91 1544.66C2495.71 1542.97 2503.87 1544.59 2510.43 1549.15C2517.11 1553.7 2521.67 1560.74 2523.06 1568.69C2525.71 1584.55 2514.15 1596.89 2505.14 1608.99C2458.68 1669.02 2397.33 1715.88 2327.17 1744.89C2223.23 1788.8 2105.91 1788.62 2002.09 1744.41C1936.03 1716.55 1877.22 1673.96 1830.15 1619.89C1810.57 1596.96 1781.68 1561.38 1825.89 1544.36Z" fill="#26A054"/>
<path fill-rule="evenodd" clip-rule="evenodd" d="M2079.7 1900.22C2072.79 1855.98 2031.36 1825.7 1987.12 1832.53C1942.78 1839.39 1912.41 1880.93 1919.33 1925.26C1926.26 1969.59 1967.84 1999.9 2012.17 1992.9C2056.39 1985.92 2086.61 1944.45 2079.7 1900.22ZM1993.34 1869.12C2017 1865.78 2038.98 1882 2042.76 1905.59C2046.54 1929.19 2030.73 1951.46 2007.2 1955.68C1991.6 1958.47 1975.7 1952.63 1965.63 1940.38C1955.56 1928.14 1952.88 1911.41 1958.62 1896.64C1964.37 1881.87 1977.64 1871.35 1993.34 1869.12Z" fill="#26A054"/>
<path fill-rule="evenodd" clip-rule="evenodd" d="M2099.82 923.193C2202.13 898.815 2173.93 752.32 2080.35 763.717C2079.06 763.882 2077.53 764.069 2075.79 764.28C2059.64 766.24 2026.44 770.27 2019.88 778.706C2017.29 791.373 2037.53 918.532 2043.99 927.733C2045.73 930.206 2047.74 930.484 2050.62 930.731C2061.54 931.668 2075.09 928.616 2087.39 925.844C2091.75 924.862 2095.95 923.915 2099.82 923.193ZM2078.57 800.206C2126.44 792.929 2146.06 858.268 2103.66 883.712C2095.42 887.291 2086.09 888.78 2077.11 890.215C2075.93 890.403 2074.76 890.59 2073.6 890.78C2068.91 863.535 2063.53 831.008 2060.38 803.717C2064.76 802.505 2069.96 801.642 2074.8 800.842C2076.09 800.627 2077.36 800.417 2078.57 800.206Z" fill="#0E5E9A"/>
<path fill-rule="evenodd" clip-rule="evenodd" d="M2309.78 774.08C2297.13 770.711 2276.56 765.233 2265.64 764.55C2265.39 764.707 2265.13 764.87 2264.87 765.038C2262.26 766.688 2258.85 768.838 2258.05 771.745C2250.73 798.095 2243.88 824.601 2237.02 851.099C2233.12 866.195 2229.21 881.289 2225.22 896.35C2219.6 917.537 2226.91 919.227 2243 922.947C2244.66 923.329 2246.4 923.733 2248.24 924.182C2250.16 924.653 2252.06 925.123 2253.93 925.588C2279.51 931.935 2300.71 937.196 2326.8 925.961C2366.59 905.425 2387.33 855.905 2365.91 814.721C2355.35 794.454 2334.91 780.948 2313.25 775.003C2312.18 774.72 2311.02 774.41 2309.78 774.08ZM2288.42 805.572C2318.1 812.988 2342.48 822.452 2334.89 861.406C2332.16 875.495 2323.19 885.206 2311.21 892.674C2294.95 899.524 2284.89 896.422 2269.74 891.75C2268.46 891.355 2267.14 890.949 2265.78 890.536C2273.15 862.17 2280.7 833.848 2288.42 805.572Z" fill="#0E5E9A"/>
<path d="M2366.07 1816.46C2369.83 1816.21 2374.1 1815.85 2377.12 1818.63C2381.4 1822.56 2417.88 1927.94 2421.56 1940.78C2422.98 1945.68 2424.04 1950.4 2424.06 1955.54C2418.67 1963.15 2404.71 1966.07 2395.76 1968.47C2386.15 1963.35 2370.97 1952.13 2361.85 1945.74L2306.81 1907.11C2311.17 1920.55 2332.51 1978.3 2329.88 1987.91C2325.02 1994.72 2318.16 1995.36 2309.91 1997.69C2304.49 1999.1 2297.78 1999.72 2295.46 1992.87C2282.86 1955.69 2271.06 1918.11 2258.84 1880.82C2249.72 1852.96 2255.14 1853.88 2282.06 1846.12C2290.96 1850.39 2306.29 1861.92 2314.71 1867.96C2333.04 1881.34 2351.59 1894.4 2370.37 1907.15C2365.2 1893.49 2343.56 1839.47 2345.24 1828.26C2349.58 1821.24 2358.15 1819.38 2366.07 1816.46Z" fill="#26A054"/>
<path fill-rule="evenodd" clip-rule="evenodd" d="M1849.25 850.369C1849.01 850.386 1848.78 850.403 1848.55 850.418C1847.13 851.267 1845.41 852.228 1843.52 853.283C1834.97 858.055 1823.01 864.74 1819.99 871.583C1816.84 878.739 1848.1 1019.75 1854.39 1031.19C1861.21 1035.32 1865.15 1033.09 1870.25 1030.19C1871.54 1029.46 1872.91 1028.69 1874.42 1027.96C1891.06 1019.96 1887.41 1007.13 1883.38 992.955C1882.59 990.188 1881.79 987.37 1881.12 984.526C1889.4 978.943 1897.73 973.427 1906.1 967.981L1932.87 950.855C1933.99 951.684 1935.21 952.597 1936.5 953.563C1943.86 959.06 1953.55 966.295 1960.23 969.774C1960.67 969.561 1961.14 969.342 1961.61 969.116C1970.26 965.027 1983.27 958.869 1985.99 949.531C1986.78 946.784 1986.76 944.62 1985.18 942.167C1979.15 932.804 1876.88 863.09 1861.14 853.55C1858.52 851.957 1856.18 850.71 1853.1 850.332C1851.86 850.182 1850.52 850.279 1849.25 850.369ZM1859.98 898.105C1868.36 902.414 1896.1 923.09 1903.39 929.319L1890.66 937.794C1889.75 938.417 1888.84 939.043 1887.93 939.668C1882.93 943.103 1877.97 946.518 1872.52 949.197C1869.31 937.02 1866.31 924.496 1863.34 912.081C1862.22 907.4 1861.1 902.73 1859.98 898.105Z" fill="#0E5E9A"/>
<path fill-rule="evenodd" clip-rule="evenodd" d="M1776.94 1052.36C1794.83 1013.6 1765.7 971.948 1723.25 974.454C1693.09 980.278 1681 997.732 1666.16 1019.15C1662.56 1024.34 1658.8 1029.78 1654.58 1035.33C1650.51 1040.69 1646.86 1047.66 1647.41 1054.52C1654.12 1067.1 1732.25 1120.29 1748.7 1131.37C1759.57 1139.63 1771.25 1147.33 1781.35 1132.09C1785.31 1126.2 1787.07 1119.1 1786.32 1112.03C1782.68 1106.91 1774.71 1101.46 1766.96 1096.16C1762.3 1092.96 1757.71 1089.83 1754.2 1086.85C1754.98 1085.82 1755.75 1084.8 1756.52 1083.79C1764.16 1073.73 1771.58 1063.98 1776.94 1052.36ZM1723.78 1011.96C1760.31 1016.24 1743.71 1056.06 1725.81 1066.19L1721.89 1064.32C1711.99 1057.25 1702.19 1050.04 1692.49 1042.69C1693.64 1040.96 1694.74 1039.27 1695.81 1037.63C1703.41 1025.92 1709.59 1016.39 1723.78 1011.96Z" fill="#0E5E9A"/>
<path fill-rule="evenodd" clip-rule="evenodd" d="M1842.5 1743.26C1833.98 1736.51 1824.99 1729.38 1816.08 1727.72C1807.33 1732.45 1786.66 1761.48 1768.36 1787.18C1756.43 1803.94 1745.5 1819.28 1739.54 1825.56C1737.05 1828.18 1730.54 1838.52 1728.7 1842.22C1727.88 1852.01 1743.65 1864.43 1750.33 1865.35C1759 1866.55 1771.62 1847.79 1778.77 1837.15C1779.92 1835.45 1780.92 1833.95 1781.75 1832.78L1790.89 1839.86C1807.73 1852.43 1823.61 1863.41 1846.17 1860.45C1859.79 1858.78 1872.16 1851.71 1880.52 1840.83C1905.38 1808.1 1885.73 1771.26 1855.22 1752.61C1851.15 1750.12 1846.89 1746.74 1842.5 1743.26ZM1826.11 1773.51C1827.41 1774.43 1828.81 1775.39 1830.29 1776.4C1844.47 1786.13 1864.63 1799.95 1850.13 1817.62C1845.12 1823.74 1841.65 1824.65 1833.97 1825.64C1823.39 1823.03 1815.03 1816.26 1806.56 1809.41C1805.09 1808.22 1803.6 1807.02 1802.11 1805.84C1807.49 1798.35 1813.18 1790.77 1818.81 1783.25C1821.26 1779.99 1823.71 1776.73 1826.11 1773.51Z" fill="#26A054"/>
<path fill-rule="evenodd" clip-rule="evenodd" d="M1806.01 1808.96C1806.19 1809.11 1806.38 1809.26 1806.56 1809.41C1806.38 1809.26 1806.19 1809.11 1806.01 1808.96Z" fill="#FFFFF9"/>
<path d="M2641.3 994.039C2645.17 994.379 2649.32 994.951 2651.94 998.114C2658.65 1006.21 2698.47 1073.99 2697.09 1080.73C2696.16 1085.26 2692.28 1088.95 2688.59 1091.45C2684.09 1094.49 2677 1097.85 2671.42 1096.18C2664.34 1094.06 2642.2 1051.91 2636.99 1043.09L2614.15 1055.94C2619.19 1065.95 2626.39 1075.56 2631.84 1085.46C2636.96 1094.53 2644.33 1104.26 2633.16 1112.21C2613.31 1126.34 2608.7 1115.72 2599.43 1098.9C2595.52 1091.83 2589.18 1080.88 2584.68 1075.21L2582.49 1075.6L2561.58 1087.71C2568.09 1100.35 2589.93 1131.38 2591.16 1145.52C2591.75 1152.34 2574.23 1162.62 2564.89 1160.95C2555.58 1155.66 2530.95 1106.64 2523.21 1095C2519.67 1089.68 2514.33 1077.75 2516.24 1071C2524.68 1061.16 2623.39 1003.93 2641.3 994.039Z" fill="#0E5E9A"/>
<path d="M2508.12 1724.38C2515.45 1725.66 2516.61 1727.32 2521.73 1732.71C2540.73 1752.77 2516.04 1762.99 2501.67 1775.2C2514.87 1793.06 2528.21 1810.82 2541.66 1828.52C2549.64 1839.04 2557.63 1849.04 2564.88 1860.22C2572.59 1870.52 2550.08 1889.06 2541.81 1887.01C2533.64 1884.98 2520.63 1864.26 2515.59 1857.24C2500.49 1837.67 2486.22 1818.14 2470.83 1798.64C2464.15 1803.2 2445.72 1819.78 2437.44 1818.78C2429.23 1817.8 2419.75 1802.54 2420.7 1793C2424.27 1787.79 2499.09 1730.2 2508.12 1724.38Z" fill="#26A054"/>
<path d="M2488.87 855.115C2496.55 854.903 2498.42 856.772 2504.59 860.754C2512.65 865.944 2522.63 874.623 2515.22 884.705C2507.64 895.034 2499.55 904.799 2491.56 914.732L2446.58 970.608C2459.14 980.528 2476.48 992.916 2486.94 1004.7C2497.57 1016.66 2483.33 1030.66 2471.02 1034.36C2461.17 1030.83 2398.72 982.676 2398.23 973.848C2403.84 956.605 2439.52 918.162 2451.24 901.301C2457.54 892.228 2481.06 861.902 2488.87 855.115Z" fill="#0E5E9A"/>
<path d="M1641.56 1323.65C1669.66 1320.21 1695.3 1340.04 1699.05 1368.11C1702.79 1396.17 1683.25 1422.03 1655.23 1426.08C1636.82 1428.74 1618.41 1421.31 1607.01 1406.62C1595.61 1391.93 1592.99 1372.24 1600.13 1355.08C1607.28 1337.91 1623.1 1325.91 1641.56 1323.65Z" fill="#26A054"/>
<path d="M2666.49 1321.29C2684.85 1318.4 2703.33 1325.61 2714.9 1340.16C2726.46 1354.71 2729.31 1374.35 2722.35 1391.59C2715.39 1408.81 2699.7 1420.96 2681.27 1423.4C2653.27 1427.11 2627.49 1407.61 2623.45 1379.65C2619.39 1351.69 2638.58 1325.68 2666.49 1321.29Z" fill="#26A054"/>
<path d="M2155.91 1861.22C2166.02 1860.92 2178.67 1858.92 2185.96 1865.75C2187.74 1871.14 2188.28 1877.45 2188.14 1883.19C2187.11 1923.9 2186.75 1964.73 2185.01 2005.39C2184.91 2007.62 2180.94 2011.54 2179.29 2013.18C2175.52 2013.36 2171.75 2013.53 2167.98 2013.67C2160.34 2013.93 2154.11 2014.48 2148.29 2009.03C2144.24 1992.11 2150.46 1896.1 2149.58 1871.9C2149.4 1866.68 2152.25 1864.48 2155.91 1861.22Z" fill="#26A054"/>
</svg>
